<mxfile host="drawio-plugin" agent="Mozilla/5.0 (Macintosh; Intel Mac OS X 10_15_7) AppleWebKit/537.36 (KHTML, like Gecko) Chrome/122.0.0.0 Safari/537.36" modified="2025-01-12T17:31:59.223Z" etag="y2LqPu_tf5WuO-iCPvP1" version="22.1.22" type="embed">
  <diagram name="Page-1" id="oB8MHlwppOr-tE6rPpJF">
    <mxGraphModel dx="844" dy="588" grid="1" gridSize="10" guides="1" tooltips="1" connect="1" arrows="1" fold="1" page="1" pageScale="1" pageWidth="1169" pageHeight="1654" math="0" shadow="0">
      <root>
        <mxCell id="0" />
        <mxCell id="1" parent="0" />
        <mxCell id="2" value="" style="swimlane;startSize=0;fillColor=#d5e8d4;strokeColor=#82b366;" parent="1" vertex="1">
          <mxGeometry x="340" y="320" width="450" height="430" as="geometry" />
        </mxCell>
        <mxCell id="18" value="Order Service" style="text;html=1;align=left;verticalAlign=middle;resizable=0;points=[];autosize=1;strokeColor=none;fillColor=none;" parent="2" vertex="1">
          <mxGeometry x="20" width="100" height="30" as="geometry" />
        </mxCell>
        <mxCell id="3" value="Article Registry" style="shape=hexagon;perimeter=hexagonPerimeter2;whiteSpace=wrap;html=1;fixedSize=1;fillColor=#d5e8d4;strokeColor=#82b366;" parent="2" vertex="1">
          <mxGeometry x="162.38" y="110" width="120" height="80" as="geometry" />
        </mxCell>
        <mxCell id="13" value="" style="endArrow=none;html=1;rounded=0;fillColor=#d5e8d4;strokeColor=#82b366;startArrow=open;startFill=0;endFill=0;" parent="2" edge="1">
          <mxGeometry width="50" height="50" relative="1" as="geometry">
            <mxPoint x="233.38" y="200" as="sourcePoint" />
            <mxPoint x="233.38" y="240" as="targetPoint" />
          </mxGeometry>
        </mxCell>
        <mxCell id="14" value="retrieves&lt;br&gt;Article" style="edgeLabel;html=1;align=center;verticalAlign=middle;resizable=0;points=[];" parent="13" vertex="1" connectable="0">
          <mxGeometry x="0.0845" y="-2" relative="1" as="geometry">
            <mxPoint x="32" as="offset" />
          </mxGeometry>
        </mxCell>
        <mxCell id="23" value="" style="rounded=0;orthogonalLoop=1;jettySize=auto;html=1;dashed=1;endArrow=open;endFill=0;fillColor=#d5e8d4;strokeColor=#82b366;entryX=0;entryY=0.5;entryDx=0;entryDy=0;" parent="2" edge="1">
          <mxGeometry relative="1" as="geometry">
            <mxPoint x="39.13" y="130" as="sourcePoint" />
            <mxPoint x="143.63" y="130" as="targetPoint" />
          </mxGeometry>
        </mxCell>
        <mxCell id="24" value="articles.check-validity" style="edgeLabel;html=1;align=center;verticalAlign=middle;resizable=0;points=[];" parent="23" connectable="0" vertex="1">
          <mxGeometry x="0.066" y="1" relative="1" as="geometry">
            <mxPoint x="-4" y="-9" as="offset" />
          </mxGeometry>
        </mxCell>
        <mxCell id="25" value="" style="rounded=0;orthogonalLoop=1;jettySize=auto;html=1;dashed=1;endArrow=none;endFill=0;fillColor=#d5e8d4;strokeColor=#82b366;entryX=0;entryY=0.5;entryDx=0;entryDy=0;startArrow=open;startFill=0;" parent="2" edge="1">
          <mxGeometry relative="1" as="geometry">
            <mxPoint x="39.13" y="160" as="sourcePoint" />
            <mxPoint x="143.63" y="160" as="targetPoint" />
          </mxGeometry>
        </mxCell>
        <mxCell id="26" value="order.receive-validity" style="edgeLabel;html=1;align=center;verticalAlign=middle;resizable=0;points=[];" parent="25" connectable="0" vertex="1">
          <mxGeometry x="0.066" y="1" relative="1" as="geometry">
            <mxPoint x="-4" y="-9" as="offset" />
          </mxGeometry>
        </mxCell>
        <mxCell id="31" value="" style="rounded=0;orthogonalLoop=1;jettySize=auto;html=1;dashed=1;endArrow=open;endFill=0;fillColor=#d5e8d4;strokeColor=#82b366;entryX=0;entryY=0.5;entryDx=0;entryDy=0;startArrow=none;startFill=0;" parent="2" edge="1">
          <mxGeometry relative="1" as="geometry">
            <mxPoint x="306.38" y="149.5" as="sourcePoint" />
            <mxPoint x="410.88" y="149.5" as="targetPoint" />
          </mxGeometry>
        </mxCell>
        <mxCell id="32" value="logs.new" style="edgeLabel;html=1;align=center;verticalAlign=middle;resizable=0;points=[];" parent="31" connectable="0" vertex="1">
          <mxGeometry x="0.066" y="1" relative="1" as="geometry">
            <mxPoint x="-4" y="-9" as="offset" />
          </mxGeometry>
        </mxCell>
        <mxCell id="62" value="Prices" style="shape=table;startSize=30;container=1;collapsible=0;childLayout=tableLayout;strokeColor=#82b366;fontSize=16;fillColor=#d5e8d4;" parent="2" vertex="1">
          <mxGeometry x="96.38" y="260" width="120" height="80" as="geometry" />
        </mxCell>
        <mxCell id="63" value="" style="shape=tableRow;horizontal=0;startSize=0;swimlaneHead=0;swimlaneBody=0;strokeColor=inherit;top=0;left=0;bottom=0;right=0;collapsible=0;dropTarget=0;fillColor=none;points=[[0,0.5],[1,0.5]];portConstraint=eastwest;fontSize=16;" parent="62" vertex="1">
          <mxGeometry y="30" width="120" height="17" as="geometry" />
        </mxCell>
        <mxCell id="64" value="" style="shape=partialRectangle;html=1;whiteSpace=wrap;connectable=0;strokeColor=inherit;overflow=hidden;fillColor=none;top=0;left=0;bottom=0;right=0;pointerEvents=1;fontSize=16;" parent="63" vertex="1">
          <mxGeometry width="40" height="17" as="geometry">
            <mxRectangle width="40" height="17" as="alternateBounds" />
          </mxGeometry>
        </mxCell>
        <mxCell id="65" value="" style="shape=partialRectangle;html=1;whiteSpace=wrap;connectable=0;strokeColor=inherit;overflow=hidden;fillColor=none;top=0;left=0;bottom=0;right=0;pointerEvents=1;fontSize=16;" parent="63" vertex="1">
          <mxGeometry x="40" width="40" height="17" as="geometry">
            <mxRectangle width="40" height="17" as="alternateBounds" />
          </mxGeometry>
        </mxCell>
        <mxCell id="66" value="" style="shape=partialRectangle;html=1;whiteSpace=wrap;connectable=0;strokeColor=inherit;overflow=hidden;fillColor=none;top=0;left=0;bottom=0;right=0;pointerEvents=1;fontSize=16;" parent="63" vertex="1">
          <mxGeometry x="80" width="40" height="17" as="geometry">
            <mxRectangle width="40" height="17" as="alternateBounds" />
          </mxGeometry>
        </mxCell>
        <mxCell id="67" value="" style="shape=tableRow;horizontal=0;startSize=0;swimlaneHead=0;swimlaneBody=0;strokeColor=inherit;top=0;left=0;bottom=0;right=0;collapsible=0;dropTarget=0;fillColor=none;points=[[0,0.5],[1,0.5]];portConstraint=eastwest;fontSize=16;" parent="62" vertex="1">
          <mxGeometry y="47" width="120" height="16" as="geometry" />
        </mxCell>
        <mxCell id="68" value="" style="shape=partialRectangle;html=1;whiteSpace=wrap;connectable=0;strokeColor=inherit;overflow=hidden;fillColor=none;top=0;left=0;bottom=0;right=0;pointerEvents=1;fontSize=16;" parent="67" vertex="1">
          <mxGeometry width="40" height="16" as="geometry">
            <mxRectangle width="40" height="16" as="alternateBounds" />
          </mxGeometry>
        </mxCell>
        <mxCell id="69" value="" style="shape=partialRectangle;html=1;whiteSpace=wrap;connectable=0;strokeColor=inherit;overflow=hidden;fillColor=none;top=0;left=0;bottom=0;right=0;pointerEvents=1;fontSize=16;" parent="67" vertex="1">
          <mxGeometry x="40" width="40" height="16" as="geometry">
            <mxRectangle width="40" height="16" as="alternateBounds" />
          </mxGeometry>
        </mxCell>
        <mxCell id="70" value="" style="shape=partialRectangle;html=1;whiteSpace=wrap;connectable=0;strokeColor=inherit;overflow=hidden;fillColor=none;top=0;left=0;bottom=0;right=0;pointerEvents=1;fontSize=16;" parent="67" vertex="1">
          <mxGeometry x="80" width="40" height="16" as="geometry">
            <mxRectangle width="40" height="16" as="alternateBounds" />
          </mxGeometry>
        </mxCell>
        <mxCell id="71" value="" style="shape=tableRow;horizontal=0;startSize=0;swimlaneHead=0;swimlaneBody=0;strokeColor=inherit;top=0;left=0;bottom=0;right=0;collapsible=0;dropTarget=0;fillColor=none;points=[[0,0.5],[1,0.5]];portConstraint=eastwest;fontSize=16;" parent="62" vertex="1">
          <mxGeometry y="63" width="120" height="17" as="geometry" />
        </mxCell>
        <mxCell id="72" value="" style="shape=partialRectangle;html=1;whiteSpace=wrap;connectable=0;strokeColor=inherit;overflow=hidden;fillColor=none;top=0;left=0;bottom=0;right=0;pointerEvents=1;fontSize=16;" parent="71" vertex="1">
          <mxGeometry width="40" height="17" as="geometry">
            <mxRectangle width="40" height="17" as="alternateBounds" />
          </mxGeometry>
        </mxCell>
        <mxCell id="73" value="" style="shape=partialRectangle;html=1;whiteSpace=wrap;connectable=0;strokeColor=inherit;overflow=hidden;fillColor=none;top=0;left=0;bottom=0;right=0;pointerEvents=1;fontSize=16;" parent="71" vertex="1">
          <mxGeometry x="40" width="40" height="17" as="geometry">
            <mxRectangle width="40" height="17" as="alternateBounds" />
          </mxGeometry>
        </mxCell>
        <mxCell id="74" value="" style="shape=partialRectangle;html=1;whiteSpace=wrap;connectable=0;strokeColor=inherit;overflow=hidden;fillColor=none;top=0;left=0;bottom=0;right=0;pointerEvents=1;fontSize=16;" parent="71" vertex="1">
          <mxGeometry x="80" width="40" height="17" as="geometry">
            <mxRectangle width="40" height="17" as="alternateBounds" />
          </mxGeometry>
        </mxCell>
        <mxCell id="49" value="Articles" style="shape=table;startSize=30;container=1;collapsible=0;childLayout=tableLayout;strokeColor=#82b366;fontSize=16;fillColor=#d5e8d4;" parent="2" vertex="1">
          <mxGeometry x="241.38" y="260" width="120" height="80" as="geometry" />
        </mxCell>
        <mxCell id="50" value="" style="shape=tableRow;horizontal=0;startSize=0;swimlaneHead=0;swimlaneBody=0;strokeColor=inherit;top=0;left=0;bottom=0;right=0;collapsible=0;dropTarget=0;fillColor=none;points=[[0,0.5],[1,0.5]];portConstraint=eastwest;fontSize=16;" parent="49" vertex="1">
          <mxGeometry y="30" width="120" height="17" as="geometry" />
        </mxCell>
        <mxCell id="51" value="" style="shape=partialRectangle;html=1;whiteSpace=wrap;connectable=0;strokeColor=inherit;overflow=hidden;fillColor=none;top=0;left=0;bottom=0;right=0;pointerEvents=1;fontSize=16;" parent="50" vertex="1">
          <mxGeometry width="40" height="17" as="geometry">
            <mxRectangle width="40" height="17" as="alternateBounds" />
          </mxGeometry>
        </mxCell>
        <mxCell id="52" value="" style="shape=partialRectangle;html=1;whiteSpace=wrap;connectable=0;strokeColor=inherit;overflow=hidden;fillColor=none;top=0;left=0;bottom=0;right=0;pointerEvents=1;fontSize=16;" parent="50" vertex="1">
          <mxGeometry x="40" width="40" height="17" as="geometry">
            <mxRectangle width="40" height="17" as="alternateBounds" />
          </mxGeometry>
        </mxCell>
        <mxCell id="53" value="" style="shape=partialRectangle;html=1;whiteSpace=wrap;connectable=0;strokeColor=inherit;overflow=hidden;fillColor=none;top=0;left=0;bottom=0;right=0;pointerEvents=1;fontSize=16;" parent="50" vertex="1">
          <mxGeometry x="80" width="40" height="17" as="geometry">
            <mxRectangle width="40" height="17" as="alternateBounds" />
          </mxGeometry>
        </mxCell>
        <mxCell id="54" value="" style="shape=tableRow;horizontal=0;startSize=0;swimlaneHead=0;swimlaneBody=0;strokeColor=inherit;top=0;left=0;bottom=0;right=0;collapsible=0;dropTarget=0;fillColor=none;points=[[0,0.5],[1,0.5]];portConstraint=eastwest;fontSize=16;" parent="49" vertex="1">
          <mxGeometry y="47" width="120" height="16" as="geometry" />
        </mxCell>
        <mxCell id="55" value="" style="shape=partialRectangle;html=1;whiteSpace=wrap;connectable=0;strokeColor=inherit;overflow=hidden;fillColor=none;top=0;left=0;bottom=0;right=0;pointerEvents=1;fontSize=16;" parent="54" vertex="1">
          <mxGeometry width="40" height="16" as="geometry">
            <mxRectangle width="40" height="16" as="alternateBounds" />
          </mxGeometry>
        </mxCell>
        <mxCell id="56" value="" style="shape=partialRectangle;html=1;whiteSpace=wrap;connectable=0;strokeColor=inherit;overflow=hidden;fillColor=none;top=0;left=0;bottom=0;right=0;pointerEvents=1;fontSize=16;" parent="54" vertex="1">
          <mxGeometry x="40" width="40" height="16" as="geometry">
            <mxRectangle width="40" height="16" as="alternateBounds" />
          </mxGeometry>
        </mxCell>
        <mxCell id="57" value="" style="shape=partialRectangle;html=1;whiteSpace=wrap;connectable=0;strokeColor=inherit;overflow=hidden;fillColor=none;top=0;left=0;bottom=0;right=0;pointerEvents=1;fontSize=16;" parent="54" vertex="1">
          <mxGeometry x="80" width="40" height="16" as="geometry">
            <mxRectangle width="40" height="16" as="alternateBounds" />
          </mxGeometry>
        </mxCell>
        <mxCell id="58" value="" style="shape=tableRow;horizontal=0;startSize=0;swimlaneHead=0;swimlaneBody=0;strokeColor=inherit;top=0;left=0;bottom=0;right=0;collapsible=0;dropTarget=0;fillColor=none;points=[[0,0.5],[1,0.5]];portConstraint=eastwest;fontSize=16;" parent="49" vertex="1">
          <mxGeometry y="63" width="120" height="17" as="geometry" />
        </mxCell>
        <mxCell id="59" value="" style="shape=partialRectangle;html=1;whiteSpace=wrap;connectable=0;strokeColor=inherit;overflow=hidden;fillColor=none;top=0;left=0;bottom=0;right=0;pointerEvents=1;fontSize=16;" parent="58" vertex="1">
          <mxGeometry width="40" height="17" as="geometry">
            <mxRectangle width="40" height="17" as="alternateBounds" />
          </mxGeometry>
        </mxCell>
        <mxCell id="60" value="" style="shape=partialRectangle;html=1;whiteSpace=wrap;connectable=0;strokeColor=inherit;overflow=hidden;fillColor=none;top=0;left=0;bottom=0;right=0;pointerEvents=1;fontSize=16;" parent="58" vertex="1">
          <mxGeometry x="40" width="40" height="17" as="geometry">
            <mxRectangle width="40" height="17" as="alternateBounds" />
          </mxGeometry>
        </mxCell>
        <mxCell id="61" value="" style="shape=partialRectangle;html=1;whiteSpace=wrap;connectable=0;strokeColor=inherit;overflow=hidden;fillColor=none;top=0;left=0;bottom=0;right=0;pointerEvents=1;fontSize=16;" parent="58" vertex="1">
          <mxGeometry x="80" width="40" height="17" as="geometry">
            <mxRectangle width="40" height="17" as="alternateBounds" />
          </mxGeometry>
        </mxCell>
        <mxCell id="47" value="" style="endArrow=none;html=1;rounded=0;fillColor=#d5e8d4;strokeColor=#82b366;startArrow=open;startFill=0;endFill=0;" parent="2" edge="1">
          <mxGeometry width="50" height="50" relative="1" as="geometry">
            <mxPoint x="213.38" y="200" as="sourcePoint" />
            <mxPoint x="213.38" y="240" as="targetPoint" />
          </mxGeometry>
        </mxCell>
        <mxCell id="48" value="retrieves&lt;br&gt;Price" style="edgeLabel;html=1;align=center;verticalAlign=middle;resizable=0;points=[];" parent="47" vertex="1" connectable="0">
          <mxGeometry x="-0.0534" y="-1" relative="1" as="geometry">
            <mxPoint x="-30" as="offset" />
          </mxGeometry>
        </mxCell>
        <mxCell id="75" value="Database" style="shape=cylinder3;whiteSpace=wrap;html=1;boundedLbl=1;backgroundOutline=1;size=15;fillColor=#d5e8d4;strokeColor=#82b366;" vertex="1" parent="1">
          <mxGeometry x="450.5" y="820" width="81" height="80" as="geometry" />
        </mxCell>
        <mxCell id="77" value="Legend" style="text;html=1;align=center;verticalAlign=middle;resizable=0;points=[];autosize=1;strokeColor=none;fillColor=none;fontSize=16;" vertex="1" parent="1">
          <mxGeometry x="330" y="779" width="80" height="30" as="geometry" />
        </mxCell>
        <mxCell id="79" value="" style="rounded=0;orthogonalLoop=1;jettySize=auto;html=1;dashed=1;endArrow=open;endFill=0;fillColor=#d5e8d4;strokeColor=#82b366;exitX=1;exitY=0.25;exitDx=0;exitDy=0;" edge="1" parent="1">
          <mxGeometry relative="1" as="geometry">
            <mxPoint x="340" y="840" as="sourcePoint" />
            <mxPoint x="430" y="840" as="targetPoint" />
          </mxGeometry>
        </mxCell>
        <mxCell id="80" value="Bus Message async" style="edgeLabel;html=1;align=center;verticalAlign=middle;resizable=0;points=[];" connectable="0" vertex="1" parent="79">
          <mxGeometry x="0.066" y="1" relative="1" as="geometry">
            <mxPoint y="-11" as="offset" />
          </mxGeometry>
        </mxCell>
        <mxCell id="81" value="" style="endArrow=none;html=1;rounded=0;fillColor=#d5e8d4;strokeColor=#82b366;startArrow=open;startFill=0;endFill=0;" edge="1" parent="1">
          <mxGeometry width="50" height="50" relative="1" as="geometry">
            <mxPoint x="430" y="885.34" as="sourcePoint" />
            <mxPoint x="340" y="885.34" as="targetPoint" />
          </mxGeometry>
        </mxCell>
        <mxCell id="82" value="Relation" style="edgeLabel;html=1;align=center;verticalAlign=middle;resizable=0;points=[];" vertex="1" connectable="0" parent="81">
          <mxGeometry x="0.0845" y="-2" relative="1" as="geometry">
            <mxPoint x="-21" y="-8" as="offset" />
          </mxGeometry>
        </mxCell>
        <mxCell id="83" value="" style="rounded=0;orthogonalLoop=1;jettySize=auto;html=1;dashed=1;endArrow=classic;endFill=1;fillColor=#d5e8d4;strokeColor=#82b366;exitX=1;exitY=0.25;exitDx=0;exitDy=0;" edge="1" parent="1">
          <mxGeometry relative="1" as="geometry">
            <mxPoint x="340" y="865.34" as="sourcePoint" />
            <mxPoint x="430" y="865.34" as="targetPoint" />
          </mxGeometry>
        </mxCell>
        <mxCell id="84" value="Bus Message sync" style="edgeLabel;html=1;align=center;verticalAlign=middle;resizable=0;points=[];" connectable="0" vertex="1" parent="83">
          <mxGeometry x="0.066" y="1" relative="1" as="geometry">
            <mxPoint x="-3" y="-14" as="offset" />
          </mxGeometry>
        </mxCell>
        <mxCell id="85" value="CSV Table" style="shape=table;startSize=30;container=1;collapsible=0;childLayout=tableLayout;strokeColor=#82b366;fontSize=16;fillColor=#d5e8d4;" vertex="1" parent="1">
          <mxGeometry x="560" y="820" width="120" height="80" as="geometry" />
        </mxCell>
        <mxCell id="86" value="" style="shape=tableRow;horizontal=0;startSize=0;swimlaneHead=0;swimlaneBody=0;strokeColor=inherit;top=0;left=0;bottom=0;right=0;collapsible=0;dropTarget=0;fillColor=none;points=[[0,0.5],[1,0.5]];portConstraint=eastwest;fontSize=16;" vertex="1" parent="85">
          <mxGeometry y="30" width="120" height="17" as="geometry" />
        </mxCell>
        <mxCell id="87" value="" style="shape=partialRectangle;html=1;whiteSpace=wrap;connectable=0;strokeColor=inherit;overflow=hidden;fillColor=none;top=0;left=0;bottom=0;right=0;pointerEvents=1;fontSize=16;" vertex="1" parent="86">
          <mxGeometry width="40" height="17" as="geometry">
            <mxRectangle width="40" height="17" as="alternateBounds" />
          </mxGeometry>
        </mxCell>
        <mxCell id="88" value="" style="shape=partialRectangle;html=1;whiteSpace=wrap;connectable=0;strokeColor=inherit;overflow=hidden;fillColor=none;top=0;left=0;bottom=0;right=0;pointerEvents=1;fontSize=16;" vertex="1" parent="86">
          <mxGeometry x="40" width="40" height="17" as="geometry">
            <mxRectangle width="40" height="17" as="alternateBounds" />
          </mxGeometry>
        </mxCell>
        <mxCell id="89" value="" style="shape=partialRectangle;html=1;whiteSpace=wrap;connectable=0;strokeColor=inherit;overflow=hidden;fillColor=none;top=0;left=0;bottom=0;right=0;pointerEvents=1;fontSize=16;" vertex="1" parent="86">
          <mxGeometry x="80" width="40" height="17" as="geometry">
            <mxRectangle width="40" height="17" as="alternateBounds" />
          </mxGeometry>
        </mxCell>
        <mxCell id="90" value="" style="shape=tableRow;horizontal=0;startSize=0;swimlaneHead=0;swimlaneBody=0;strokeColor=inherit;top=0;left=0;bottom=0;right=0;collapsible=0;dropTarget=0;fillColor=none;points=[[0,0.5],[1,0.5]];portConstraint=eastwest;fontSize=16;" vertex="1" parent="85">
          <mxGeometry y="47" width="120" height="16" as="geometry" />
        </mxCell>
        <mxCell id="91" value="" style="shape=partialRectangle;html=1;whiteSpace=wrap;connectable=0;strokeColor=inherit;overflow=hidden;fillColor=none;top=0;left=0;bottom=0;right=0;pointerEvents=1;fontSize=16;" vertex="1" parent="90">
          <mxGeometry width="40" height="16" as="geometry">
            <mxRectangle width="40" height="16" as="alternateBounds" />
          </mxGeometry>
        </mxCell>
        <mxCell id="92" value="" style="shape=partialRectangle;html=1;whiteSpace=wrap;connectable=0;strokeColor=inherit;overflow=hidden;fillColor=none;top=0;left=0;bottom=0;right=0;pointerEvents=1;fontSize=16;" vertex="1" parent="90">
          <mxGeometry x="40" width="40" height="16" as="geometry">
            <mxRectangle width="40" height="16" as="alternateBounds" />
          </mxGeometry>
        </mxCell>
        <mxCell id="93" value="" style="shape=partialRectangle;html=1;whiteSpace=wrap;connectable=0;strokeColor=inherit;overflow=hidden;fillColor=none;top=0;left=0;bottom=0;right=0;pointerEvents=1;fontSize=16;" vertex="1" parent="90">
          <mxGeometry x="80" width="40" height="16" as="geometry">
            <mxRectangle width="40" height="16" as="alternateBounds" />
          </mxGeometry>
        </mxCell>
        <mxCell id="94" value="" style="shape=tableRow;horizontal=0;startSize=0;swimlaneHead=0;swimlaneBody=0;strokeColor=inherit;top=0;left=0;bottom=0;right=0;collapsible=0;dropTarget=0;fillColor=none;points=[[0,0.5],[1,0.5]];portConstraint=eastwest;fontSize=16;" vertex="1" parent="85">
          <mxGeometry y="63" width="120" height="17" as="geometry" />
        </mxCell>
        <mxCell id="95" value="" style="shape=partialRectangle;html=1;whiteSpace=wrap;connectable=0;strokeColor=inherit;overflow=hidden;fillColor=none;top=0;left=0;bottom=0;right=0;pointerEvents=1;fontSize=16;" vertex="1" parent="94">
          <mxGeometry width="40" height="17" as="geometry">
            <mxRectangle width="40" height="17" as="alternateBounds" />
          </mxGeometry>
        </mxCell>
        <mxCell id="96" value="" style="shape=partialRectangle;html=1;whiteSpace=wrap;connectable=0;strokeColor=inherit;overflow=hidden;fillColor=none;top=0;left=0;bottom=0;right=0;pointerEvents=1;fontSize=16;" vertex="1" parent="94">
          <mxGeometry x="40" width="40" height="17" as="geometry">
            <mxRectangle width="40" height="17" as="alternateBounds" />
          </mxGeometry>
        </mxCell>
        <mxCell id="97" value="" style="shape=partialRectangle;html=1;whiteSpace=wrap;connectable=0;strokeColor=inherit;overflow=hidden;fillColor=none;top=0;left=0;bottom=0;right=0;pointerEvents=1;fontSize=16;" vertex="1" parent="94">
          <mxGeometry x="80" width="40" height="17" as="geometry">
            <mxRectangle width="40" height="17" as="alternateBounds" />
          </mxGeometry>
        </mxCell>
      </root>
    </mxGraphModel>
  </diagram>
</mxfile>
